<svg xmlns="http://www.w3.org/2000/svg" viewBox="0 0 1200 400" width="1200" height="400" role="img" aria-labelledby="t d">
  <title id="t">Verity Samples</title>
  <desc id="d">Thirty authored task bundles laid out as a lattice, eight of them marked for the second workload, beside the Verity kestrel.</desc>
  <defs>
    <linearGradient id="sky" x1="0" y1="0" x2="0" y2="1">
      <stop offset="0" stop-color="#0d1b2a"/>
      <stop offset="1" stop-color="#1b2a3a"/>
    </linearGradient>
    <linearGradient id="wing" x1="0" y1="0" x2="1" y2="1">
      <stop offset="0" stop-color="#c96f3a"/>
      <stop offset="1" stop-color="#8f4726"/>
    </linearGradient>
  </defs>

  <rect width="1200" height="400" fill="url(#sky)"/>

  <g stroke="#2b3f52" stroke-width="1.5" opacity="0.45" fill="none">
    <path d="M40 40 q150 -18 300 0 t300 0"/>
    <path d="M560 360 q150 -18 300 0 t300 0"/>
  </g>

  <!-- thirty bundles, six by five. eight carry the accent, one per cifar bundle. -->
  <g>
    <rect x="96" y="72" width="40" height="40" rx="7" fill="#1b2a3a" stroke="#2b3f52" stroke-width="1.5"/>
    <rect x="104" y="83" width="24" height="3" rx="1.5" fill="#4b6076"/>
    <rect x="104" y="91" width="16" height="3" rx="1.5" fill="#3a4d61"/>
    <circle cx="107" cy="102" r="3" fill="#4b6076"/>

    <rect x="150" y="72" width="40" height="40" rx="7" fill="#24313f" stroke="#c96f3a" stroke-width="1.8"/>
    <rect x="158" y="83" width="24" height="3" rx="1.5" fill="#c96f3a"/>
    <rect x="158" y="91" width="16" height="3" rx="1.5" fill="#8f4726"/>
    <circle cx="161" cy="102" r="3" fill="#e0c46a"/>

    <rect x="204" y="72" width="40" height="40" rx="7" fill="#1b2a3a" stroke="#2b3f52" stroke-width="1.5"/>
    <rect x="212" y="83" width="24" height="3" rx="1.5" fill="#4b6076"/>
    <rect x="212" y="91" width="16" height="3" rx="1.5" fill="#3a4d61"/>
    <circle cx="215" cy="102" r="3" fill="#4b6076"/>

    <rect x="258" y="72" width="40" height="40" rx="7" fill="#1b2a3a" stroke="#2b3f52" stroke-width="1.5"/>
    <rect x="266" y="83" width="24" height="3" rx="1.5" fill="#4b6076"/>
    <rect x="266" y="91" width="16" height="3" rx="1.5" fill="#3a4d61"/>
    <circle cx="269" cy="102" r="3" fill="#4b6076"/>

    <rect x="312" y="72" width="40" height="40" rx="7" fill="#24313f" stroke="#c96f3a" stroke-width="1.8"/>
    <rect x="320" y="83" width="24" height="3" rx="1.5" fill="#c96f3a"/>
    <rect x="320" y="91" width="16" height="3" rx="1.5" fill="#8f4726"/>
    <circle cx="323" cy="102" r="3" fill="#e0c46a"/>

    <rect x="366" y="72" width="40" height="40" rx="7" fill="#1b2a3a" stroke="#2b3f52" stroke-width="1.5"/>
    <rect x="374" y="83" width="24" height="3" rx="1.5" fill="#4b6076"/>
    <rect x="374" y="91" width="16" height="3" rx="1.5" fill="#3a4d61"/>
    <circle cx="377" cy="102" r="3" fill="#4b6076"/>

    <rect x="96" y="126" width="40" height="40" rx="7" fill="#24313f" stroke="#c96f3a" stroke-width="1.8"/>
    <rect x="104" y="137" width="24" height="3" rx="1.5" fill="#c96f3a"/>
    <rect x="104" y="145" width="16" height="3" rx="1.5" fill="#8f4726"/>
    <circle cx="107" cy="156" r="3" fill="#e0c46a"/>

    <rect x="150" y="126" width="40" height="40" rx="7" fill="#1b2a3a" stroke="#2b3f52" stroke-width="1.5"/>
    <rect x="158" y="137" width="24" height="3" rx="1.5" fill="#4b6076"/>
    <rect x="158" y="145" width="16" height="3" rx="1.5" fill="#3a4d61"/>
    <circle cx="161" cy="156" r="3" fill="#4b6076"/>

    <rect x="204" y="126" width="40" height="40" rx="7" fill="#1b2a3a" stroke="#2b3f52" stroke-width="1.5"/>
    <rect x="212" y="137" width="24" height="3" rx="1.5" fill="#4b6076"/>
    <rect x="212" y="145" width="16" height="3" rx="1.5" fill="#3a4d61"/>
    <circle cx="215" cy="156" r="3" fill="#4b6076"/>

    <rect x="258" y="126" width="40" height="40" rx="7" fill="#24313f" stroke="#c96f3a" stroke-width="1.8"/>
    <rect x="266" y="137" width="24" height="3" rx="1.5" fill="#c96f3a"/>
    <rect x="266" y="145" width="16" height="3" rx="1.5" fill="#8f4726"/>
    <circle cx="269" cy="156" r="3" fill="#e0c46a"/>

    <rect x="312" y="126" width="40" height="40" rx="7" fill="#1b2a3a" stroke="#2b3f52" stroke-width="1.5"/>
    <rect x="320" y="137" width="24" height="3" rx="1.5" fill="#4b6076"/>
    <rect x="320" y="145" width="16" height="3" rx="1.5" fill="#3a4d61"/>
    <circle cx="323" cy="156" r="3" fill="#4b6076"/>

    <rect x="366" y="126" width="40" height="40" rx="7" fill="#1b2a3a" stroke="#2b3f52" stroke-width="1.5"/>
    <rect x="374" y="137" width="24" height="3" rx="1.5" fill="#4b6076"/>
    <rect x="374" y="145" width="16" height="3" rx="1.5" fill="#3a4d61"/>
    <circle cx="377" cy="156" r="3" fill="#4b6076"/>

    <rect x="96" y="180" width="40" height="40" rx="7" fill="#1b2a3a" stroke="#2b3f52" stroke-width="1.5"/>
    <rect x="104" y="191" width="24" height="3" rx="1.5" fill="#4b6076"/>
    <rect x="104" y="199" width="16" height="3" rx="1.5" fill="#3a4d61"/>
    <circle cx="107" cy="210" r="3" fill="#4b6076"/>

    <rect x="150" y="180" width="40" height="40" rx="7" fill="#1b2a3a" stroke="#2b3f52" stroke-width="1.5"/>
    <rect x="158" y="191" width="24" height="3" rx="1.5" fill="#4b6076"/>
    <rect x="158" y="199" width="16" height="3" rx="1.5" fill="#3a4d61"/>
    <circle cx="161" cy="210" r="3" fill="#4b6076"/>

    <rect x="204" y="180" width="40" height="40" rx="7" fill="#1b2a3a" stroke="#2b3f52" stroke-width="1.5"/>
    <rect x="212" y="191" width="24" height="3" rx="1.5" fill="#4b6076"/>
    <rect x="212" y="199" width="16" height="3" rx="1.5" fill="#3a4d61"/>
    <circle cx="215" cy="210" r="3" fill="#4b6076"/>

    <rect x="258" y="180" width="40" height="40" rx="7" fill="#1b2a3a" stroke="#2b3f52" stroke-width="1.5"/>
    <rect x="266" y="191" width="24" height="3" rx="1.5" fill="#4b6076"/>
    <rect x="266" y="199" width="16" height="3" rx="1.5" fill="#3a4d61"/>
    <circle cx="269" cy="210" r="3" fill="#4b6076"/>

    <rect x="312" y="180" width="40" height="40" rx="7" fill="#1b2a3a" stroke="#2b3f52" stroke-width="1.5"/>
    <rect x="320" y="191" width="24" height="3" rx="1.5" fill="#4b6076"/>
    <rect x="320" y="199" width="16" height="3" rx="1.5" fill="#3a4d61"/>
    <circle cx="323" cy="210" r="3" fill="#4b6076"/>

    <rect x="366" y="180" width="40" height="40" rx="7" fill="#24313f" stroke="#c96f3a" stroke-width="1.8"/>
    <rect x="374" y="191" width="24" height="3" rx="1.5" fill="#c96f3a"/>
    <rect x="374" y="199" width="16" height="3" rx="1.5" fill="#8f4726"/>
    <circle cx="377" cy="210" r="3" fill="#e0c46a"/>

    <rect x="96" y="234" width="40" height="40" rx="7" fill="#1b2a3a" stroke="#2b3f52" stroke-width="1.5"/>
    <rect x="104" y="245" width="24" height="3" rx="1.5" fill="#4b6076"/>
    <rect x="104" y="253" width="16" height="3" rx="1.5" fill="#3a4d61"/>
    <circle cx="107" cy="264" r="3" fill="#4b6076"/>

    <rect x="150" y="234" width="40" height="40" rx="7" fill="#1b2a3a" stroke="#2b3f52" stroke-width="1.5"/>
    <rect x="158" y="245" width="24" height="3" rx="1.5" fill="#4b6076"/>
    <rect x="158" y="253" width="16" height="3" rx="1.5" fill="#3a4d61"/>
    <circle cx="161" cy="264" r="3" fill="#4b6076"/>

    <rect x="204" y="234" width="40" height="40" rx="7" fill="#24313f" stroke="#c96f3a" stroke-width="1.8"/>
    <rect x="212" y="245" width="24" height="3" rx="1.5" fill="#c96f3a"/>
    <rect x="212" y="253" width="16" height="3" rx="1.5" fill="#8f4726"/>
    <circle cx="215" cy="264" r="3" fill="#e0c46a"/>

    <rect x="258" y="234" width="40" height="40" rx="7" fill="#1b2a3a" stroke="#2b3f52" stroke-width="1.5"/>
    <rect x="266" y="245" width="24" height="3" rx="1.5" fill="#4b6076"/>
    <rect x="266" y="253" width="16" height="3" rx="1.5" fill="#3a4d61"/>
    <circle cx="269" cy="264" r="3" fill="#4b6076"/>

    <rect x="312" y="234" width="40" height="40" rx="7" fill="#1b2a3a" stroke="#2b3f52" stroke-width="1.5"/>
    <rect x="320" y="245" width="24" height="3" rx="1.5" fill="#4b6076"/>
    <rect x="320" y="253" width="16" height="3" rx="1.5" fill="#3a4d61"/>
    <circle cx="323" cy="264" r="3" fill="#4b6076"/>

    <rect x="366" y="234" width="40" height="40" rx="7" fill="#1b2a3a" stroke="#2b3f52" stroke-width="1.5"/>
    <rect x="374" y="245" width="24" height="3" rx="1.5" fill="#4b6076"/>
    <rect x="374" y="253" width="16" height="3" rx="1.5" fill="#3a4d61"/>
    <circle cx="377" cy="264" r="3" fill="#4b6076"/>

    <rect x="96" y="288" width="40" height="40" rx="7" fill="#24313f" stroke="#c96f3a" stroke-width="1.8"/>
    <rect x="104" y="299" width="24" height="3" rx="1.5" fill="#c96f3a"/>
    <rect x="104" y="307" width="16" height="3" rx="1.5" fill="#8f4726"/>
    <circle cx="107" cy="318" r="3" fill="#e0c46a"/>

    <rect x="150" y="288" width="40" height="40" rx="7" fill="#1b2a3a" stroke="#2b3f52" stroke-width="1.5"/>
    <rect x="158" y="299" width="24" height="3" rx="1.5" fill="#4b6076"/>
    <rect x="158" y="307" width="16" height="3" rx="1.5" fill="#3a4d61"/>
    <circle cx="161" cy="318" r="3" fill="#4b6076"/>

    <rect x="204" y="288" width="40" height="40" rx="7" fill="#1b2a3a" stroke="#2b3f52" stroke-width="1.5"/>
    <rect x="212" y="299" width="24" height="3" rx="1.5" fill="#4b6076"/>
    <rect x="212" y="307" width="16" height="3" rx="1.5" fill="#3a4d61"/>
    <circle cx="215" cy="318" r="3" fill="#4b6076"/>

    <rect x="258" y="288" width="40" height="40" rx="7" fill="#1b2a3a" stroke="#2b3f52" stroke-width="1.5"/>
    <rect x="266" y="299" width="24" height="3" rx="1.5" fill="#4b6076"/>
    <rect x="266" y="307" width="16" height="3" rx="1.5" fill="#3a4d61"/>
    <circle cx="269" cy="318" r="3" fill="#4b6076"/>

    <rect x="312" y="288" width="40" height="40" rx="7" fill="#24313f" stroke="#c96f3a" stroke-width="1.8"/>
    <rect x="320" y="299" width="24" height="3" rx="1.5" fill="#c96f3a"/>
    <rect x="320" y="307" width="16" height="3" rx="1.5" fill="#8f4726"/>
    <circle cx="323" cy="318" r="3" fill="#e0c46a"/>

    <rect x="366" y="288" width="40" height="40" rx="7" fill="#1b2a3a" stroke="#2b3f52" stroke-width="1.5"/>
    <rect x="374" y="299" width="24" height="3" rx="1.5" fill="#4b6076"/>
    <rect x="374" y="307" width="16" height="3" rx="1.5" fill="#3a4d61"/>
    <circle cx="377" cy="318" r="3" fill="#4b6076"/>
  </g>

  <line x1="440" y1="96" x2="440" y2="304" stroke="#2b3f52" stroke-width="1.5"/>

  <!-- the kestrel, holding the same fixed point it holds on the parent banner -->
  <g transform="translate(1050 228) scale(0.46)">
    <path d="M0 0 C -78 -66, -150 -84, -196 -60 C -150 -46, -84 -26, -14 10 Z" fill="url(#wing)"/>
    <path d="M0 0 C -70 44, -128 78, -160 106 C -110 92, -52 56, -8 22 Z" fill="#a3572c"/>
    <path d="M0 0 C 78 -66, 150 -84, 196 -60 C 150 -46, 84 -26, 14 10 Z" fill="url(#wing)"/>
    <path d="M0 0 C 70 44, 128 78, 160 106 C 110 92, 52 56, 8 22 Z" fill="#a3572c"/>
    <path d="M-8 6 C 6 44, 10 84, 2 124 C -12 86, -20 44, -18 8 Z" fill="#6f6152"/>
    <ellipse cx="0" cy="-6" rx="30" ry="40" fill="#b8703f"/>
    <ellipse cx="0" cy="-40" rx="24" ry="22" fill="#d8dde2"/>
    <path d="M-24 -46 C -38 -42, -40 -34, -30 -30 Z" fill="#e0c46a"/>
    <circle cx="-12" cy="-46" r="4" fill="#0d1b2a"/>
  </g>
  <line x1="1050" y1="292" x2="1050" y2="330" stroke="#7f9bb3" stroke-width="1.5" stroke-dasharray="4 5" opacity="0.7"/>
  <circle cx="1050" cy="338" r="5" fill="#e0c46a"/>

  <text x="474" y="140" font-family="Georgia, 'Times New Roman', serif" font-size="18" fill="#7f9bb3" letter-spacing="7">VERITY</text>
  <text x="470" y="222" font-family="Georgia, 'Times New Roman', serif" font-size="84" fill="#f2f4f6" letter-spacing="3">Samples</text>
  <text x="474" y="268" font-family="Georgia, 'Times New Roman', serif" font-size="24" fill="#9fb3c6" letter-spacing="1">Every byte a run pins, grades, or forbids.</text>
  <rect x="472" y="292" width="132" height="3" fill="#c96f3a"/>
</svg>
